# xmcd
#
# Track frame offsets: 
#        150
#        15757
#        33585
#        51295
#        64842
#        80225
#        96250
#        111077
#        123337
#        139317
#        156600
#        171742
#        190155
#        206620
#        221550
#        233510
#        250075
#        268805
#        285613
#        300713
#
# Disc length: 4290 seconds
#
# Revision: 0
# Processed by: cddbd v1.5.1PL0 Copyright (c) Steve Scherf et al.
# Submitted via: ExactAudioCopy v0.90b4
#
DISCID=2d10c014
DTITLE=Smokie - 20 golden hits
DYEAR=1979
DGENRE=Classic Rock
TTITLE0=Living next door to alice
TTITLE1=Mexican Girl
TTITLE2=wild angels
TTITLE3=Something압 Been Making Me Blue
TTITLE4=If You Think You Know How To love me
TTITLE5=for a few dollars more
TTITLE6=don앖 play your Rock nroll to me
TTITLE7=needles and pins
TTITLE8=it압 your life
TTITLE9=baby it압 you
TTITLE10=changing all the time
TTITLE11=lay back in the arms of someone
TTITLE12=oh carol
TTITLE13=i앏l meet you at midnight
TTITLE14=roll on baby
TTITLE15=love압 a riot
TTITLE16=midnight lady
TTITLE17=some hearts are diamond
TTITLE18=broken heroes
TTITLE19=sarah
EXTD=
EXTT0=
EXTT1=
EXTT2=
EXTT3=
EXTT4=
EXTT5=
EXTT6=
EXTT7=
EXTT8=
EXTT9=
EXTT10=
EXTT11=
EXTT12=
EXTT13=
EXTT14=
EXTT15=
EXTT16=
EXTT17=
EXTT18=
EXTT19=
PLAYORDER=
